<?xml version="1.0" ?><!DOCTYPE svg  PUBLIC '-//W3C//DTD SVG 1.1//EN'  'http://www.w3.org/Graphics/SVG/1.1/DTD/svg11.dtd'><svg enable-background="new 0 0 24 24" height="24px" id="Layer_1" version="1.1" viewBox="0 0 24 24" width="24px" xml:space="preserve" xmlns="http://www.w3.org/2000/svg" xmlns:xlink="http://www.w3.org/1999/xlink"><path d="M7.6,18.4c-3.5,0-6.4-2.9-6.4-6.4s2.9-6.4,6.4-6.4c1.3,0,2.6,0.4,3.6,1.1C9.9,8.1,9,9.9,9,12s0.8,3.9,2.2,5.3  C10.2,17.9,9,18.4,7.6,18.4z M14,12c0,1.8-0.8,3.5-2,4.6c-1.2-1.2-2-2.8-2-4.6s0.8-3.5,2-4.6C13.2,8.5,14,10.2,14,12z M16.4,18.4  c-1.3,0-2.6-0.4-3.6-1.1c1.4-1.3,2.2-3.2,2.2-5.3s-0.8-3.9-2.2-5.3c1-0.7,2.3-1.1,3.6-1.1c3.5,0,6.4,2.9,6.4,6.4  S19.9,18.4,16.4,18.4z"/></svg>